<svg width="40" height="38" viewBox="0 0 40 38" fill="none" xmlns="http://www.w3.org/2000/svg">
<path d="M2.97852 17.5552L19.4864 1.04922C20.3647 0.170932 21.8991 0.170932 22.7811 1.04922C23.2202 1.49021 23.4627 2.07453 23.4627 2.69562C23.4627 3.31672 23.2202 3.90285 22.781 4.34203L14.053 13.07C13.8729 13.2519 13.7829 13.4872 13.7829 13.7223C13.7829 13.9575 13.8729 14.1927 14.0512 14.3728C14.4095 14.7311 14.992 14.7311 15.3503 14.3728L26.8345 2.88856C27.7147 2.00838 29.249 2.00838 30.1291 2.88856C30.5683 3.32955 30.8109 3.91387 30.8109 4.53497C30.8109 5.15606 30.5683 5.74219 30.1291 6.18138L18.6449 17.6656C18.4648 17.8457 18.3766 18.0808 18.3766 18.316C18.3766 18.5513 18.4666 18.7864 18.6449 18.9665C19.0032 19.3248 19.5857 19.3248 19.9441 18.9665L33.7251 5.18543C34.6053 4.30525 36.1396 4.30525 37.0198 5.18543C37.4589 5.62643 37.7015 6.21075 37.7015 6.83184C37.7015 7.45294 37.4589 8.03906 37.0198 8.47825L23.2388 22.2592C23.0587 22.4393 22.9705 22.6745 22.9705 22.9097C22.9705 23.1449 23.0605 23.3801 23.2388 23.5602C23.5971 23.9185 24.1796 23.9185 24.5379 23.5602L36.0218 12.0759C36.4628 11.6349 37.0471 11.3923 37.6701 11.3923C38.293 11.3923 38.8773 11.6349 39.3183 12.0741C39.7575 12.5151 40 13.0994 40 13.7205C40 14.3416 39.7575 14.9277 39.3183 15.3669L24.1591 30.5261C23.9128 30.7723 23.8265 31.1361 23.9368 31.4669C24.0488 31.7976 24.3355 32.0365 24.6791 32.0861L33.9033 33.4054C35.5276 33.6369 36.7514 35.0499 36.7514 36.6908C36.7514 37.1961 36.3397 37.6095 35.8326 37.6095H12.0758C9.86906 37.6095 7.79087 36.7496 6.22715 35.1878L2.97852 31.9392C1.05839 30.019 0 27.4631 0 24.7472C0 22.0313 1.05839 19.4755 2.97852 17.5552Z" fill="#3B174D"/>
</svg>
